<svg xmlns="http://www.w3.org/2000/svg"  viewBox="0 0 48 48" width="48px" height="48px" baseProfile="basic"><linearGradient id="mVKYaOIAgMBzZK_llbn1Na" x1="1.381" x2="47.427" y1="-8.81" y2="70.943" gradientUnits="userSpaceOnUse"><stop offset="0" stop-color="#262626" stop-opacity="0"/><stop offset="1" stop-color="#262626" stop-opacity=".8"/></linearGradient><path fill="url(#mVKYaOIAgMBzZK_llbn1Na)" d="M41,14v16.647L31.647,40H6c-2.761,0-5-2.239-5-5V14H41z"/><linearGradient id="mVKYaOIAgMBzZK_llbn1Nb" x1="59.257" x2="5.375" y1="57.682" y2="-6.531" gradientUnits="userSpaceOnUse"><stop offset="0" stop-color="#262626" stop-opacity="0"/><stop offset="1" stop-color="#262626" stop-opacity=".8"/></linearGradient><path fill="url(#mVKYaOIAgMBzZK_llbn1Nb)" d="M41,12v2H1V7h35C38.761,7,41,9.239,41,12z"/><linearGradient id="mVKYaOIAgMBzZK_llbn1Nc" x1="28.184" x2="13.954" y1="68.425" y2="-12.278" gradientUnits="userSpaceOnUse"><stop offset="0" stop-color="#262626" stop-opacity="0"/><stop offset="1" stop-color="#262626" stop-opacity=".8"/></linearGradient><path fill="url(#mVKYaOIAgMBzZK_llbn1Nc)" d="M33,28v1H19c-1.657,0-3-1.343-3-3v-1h14C31.657,25,33,26.343,33,28z M30,18H16v1	c0,1.657,1.343,3,3,3h14v-1C33,19.343,31.657,18,30,18z M30,32H16v1c0,1.657,1.343,3,3,3h14v-1C33,33.343,31.657,32,30,32z M11.5,25	H9v2.5c0,0.828,0.672,1.5,1.5,1.5H13v-2.5C13,25.672,12.328,25,11.5,25z M11.5,18H9v2.5c0,0.828,0.672,1.5,1.5,1.5H13v-2.5	C13,18.672,12.328,18,11.5,18z M11.5,32H9v2.5c0,0.828,0.672,1.5,1.5,1.5H13v-2.5C13,32.672,12.328,32,11.5,32z"/><linearGradient id="mVKYaOIAgMBzZK_llbn1Nd" x1="32.087" x2="45.126" y1="17.031" y2="27.972" gradientTransform="translate(0 16)" gradientUnits="userSpaceOnUse"><stop offset="0" stop-color="#262626" stop-opacity="0"/><stop offset="1" stop-color="#262626" stop-opacity=".8"/></linearGradient><polygon fill="url(#mVKYaOIAgMBzZK_llbn1Nd)" points="41.074,30.573 30.58,41.067 34.933,45.42 45.427,34.926"/><linearGradient id="mVKYaOIAgMBzZK_llbn1Ne" x1="42.307" x2="45.349" y1="2.041" y2="19.292" gradientTransform="translate(0 16)" gradientUnits="userSpaceOnUse"><stop offset="0" stop-color="#262626" stop-opacity="0"/><stop offset="1" stop-color="#262626" stop-opacity=".8"/></linearGradient><path fill="url(#mVKYaOIAgMBzZK_llbn1Ne)" d="M42.745,28.902l-1.671,1.671l4.353,4.353l1.671-1.671c1.202-1.202,1.202-3.151,0-4.353l0,0	C45.896,27.7,43.947,27.699,42.745,28.902z"/><linearGradient id="mVKYaOIAgMBzZK_llbn1Nf" x1="28.697" x2="34.585" y1="23.101" y2="39.277" gradientTransform="translate(0 16)" gradientUnits="userSpaceOnUse"><stop offset="0" stop-color="#262626" stop-opacity="0"/><stop offset="1" stop-color="#262626" stop-opacity=".8"/></linearGradient><polygon fill="url(#mVKYaOIAgMBzZK_llbn1Nf)" points="30.58,41.067 28,48 34.933,45.42"/></svg>