<svg xmlns="http://www.w3.org/2000/svg"  viewBox="0 0 48 48" width="48px" height="48px" baseProfile="basic"><linearGradient id="lJMCi86R7g4x3CM0DY8w6a" x1="18.882" x2="38.082" y1="15.485" y2="26.57" gradientUnits="userSpaceOnUse"><stop offset="0" stop-color="#262626" stop-opacity="0"/><stop offset="1" stop-color="#262626" stop-opacity=".8"/></linearGradient><path fill="url(#lJMCi86R7g4x3CM0DY8w6a)" d="M32.07,22H31l-1,5h-6c-1.07,0-2.07-0.28-2.93-0.77c1.19-0.85,1.87-2.35,1.59-3.93L21,13h10v3	l1.91,4.77C33.14,21.36,32.71,22,32.07,22z"/><linearGradient id="lJMCi86R7g4x3CM0DY8w6b" x1="17.362" x2="17.362" y1="2.923" y2="58.344" gradientUnits="userSpaceOnUse"><stop offset="0" stop-color="#262626" stop-opacity=".8"/><stop offset="1" stop-color="#262626" stop-opacity="0"/></linearGradient><path fill="url(#lJMCi86R7g4x3CM0DY8w6b)" d="M22.66,22.297L21,13h-4v3c0,1.105-0.895,2-2,2h-1l-2,9h6.722	C21.213,27,23.098,24.749,22.66,22.297z"/><linearGradient id="lJMCi86R7g4x3CM0DY8w6c" x1="21.975" x2="30.003" y1="19.479" y2="14.844" gradientUnits="userSpaceOnUse"><stop offset="0" stop-color="#262626" stop-opacity="0"/><stop offset="1" stop-color="#262626" stop-opacity=".8"/></linearGradient><path fill="url(#lJMCi86R7g4x3CM0DY8w6c)" d="M27,18L27,18c-1.105,0-2-0.895-2-2v0h4v0C29,17.105,28.105,18,27,18z"/><linearGradient id="lJMCi86R7g4x3CM0DY8w6d" x1="-5.905" x2="34.758" y1="51.393" y2="27.916" gradientUnits="userSpaceOnUse"><stop offset="0" stop-color="#262626" stop-opacity="0"/><stop offset="1" stop-color="#262626" stop-opacity=".8"/></linearGradient><path fill="url(#lJMCi86R7g4x3CM0DY8w6d)" d="M20,30h-3c-6.075,0-11,4.925-11,11v3h18L20,30z"/><linearGradient id="lJMCi86R7g4x3CM0DY8w6e" x1="11.944" x2="47.981" y1="50.311" y2="29.505" gradientUnits="userSpaceOnUse"><stop offset="0" stop-color="#262626" stop-opacity="0"/><stop offset="1" stop-color="#262626" stop-opacity=".8"/></linearGradient><path fill="url(#lJMCi86R7g4x3CM0DY8w6e)" d="M42,44v-3c0-6.075-4.925-11-11-11h-3l-4,14H42z"/><linearGradient id="lJMCi86R7g4x3CM0DY8w6f" x1="23.213" x2="22.306" y1="15.886" y2="2.679" gradientUnits="userSpaceOnUse"><stop offset="0" stop-color="#262626" stop-opacity="0"/><stop offset="1" stop-color="#262626" stop-opacity=".8"/></linearGradient><path fill="url(#lJMCi86R7g4x3CM0DY8w6f)" d="M12,7h23V6c0-1.105-0.895-2-2-2H10v1C10,6.105,10.895,7,12,7z"/><linearGradient id="lJMCi86R7g4x3CM0DY8w6g" x1="28.702" x2="22.294" y1="24.226" y2="4.837" gradientUnits="userSpaceOnUse"><stop offset="0" stop-color="#262626" stop-opacity="0"/><stop offset="1" stop-color="#262626" stop-opacity=".8"/></linearGradient><rect width="14" height="6" x="17" y="7" fill="url(#lJMCi86R7g4x3CM0DY8w6g)"/><linearGradient id="lJMCi86R7g4x3CM0DY8w6h" x1="9.835" x2="20.623" y1="10.758" y2="14.075" gradientUnits="userSpaceOnUse"><stop offset="0" stop-color="#262626" stop-opacity=".8"/><stop offset="1" stop-color="#262626" stop-opacity="0"/></linearGradient><path fill="url(#lJMCi86R7g4x3CM0DY8w6h)" d="M14,18h1c1.105,0,2-0.895,2-2V7h-3V18z"/><linearGradient id="lJMCi86R7g4x3CM0DY8w6i" x1="16.812" x2="35.916" y1="46.669" y2="11.066" gradientUnits="userSpaceOnUse"><stop offset="0" stop-color="#262626" stop-opacity="0"/><stop offset="1" stop-color="#262626" stop-opacity=".8"/></linearGradient><polygon fill="url(#lJMCi86R7g4x3CM0DY8w6i)" points="28,30 20,30 24,44"/></svg>