<svg xmlns="http://www.w3.org/2000/svg"  viewBox="0 0 48 48" width="48px" height="48px" baseProfile="basic"><linearGradient id="R1T7CapjVT7Uy6sbeq5BSa" x1="1.565" x2="65.691" y1="1.565" y2="65.691" gradientUnits="userSpaceOnUse"><stop offset="0" stop-color="#262626" stop-opacity="0"/><stop offset="1" stop-color="#262626" stop-opacity=".8"/></linearGradient><circle cx="24" cy="24" r="20" fill="url(#R1T7CapjVT7Uy6sbeq5BSa)"/><linearGradient id="R1T7CapjVT7Uy6sbeq5BSb" x1="41.67" x2="4.048" y1="-6.604" y2="58.558" gradientUnits="userSpaceOnUse"><stop offset="0" stop-color="#262626" stop-opacity="0"/><stop offset="1" stop-color="#262626" stop-opacity=".8"/></linearGradient><path fill="url(#R1T7CapjVT7Uy6sbeq5BSb)" d="M35,24c0,6.49-5.61,11.66-12.25,10.93c-0.85-0.09-1.66-0.29-2.45-0.57l-6.71,6.71	c-2.72-1.65-5.01-3.94-6.66-6.66l6.71-6.71c-0.28-0.79-0.48-1.6-0.57-2.45C12.34,18.61,17.51,13,24,13c1.36,0,2.65,0.25,3.85,0.7	l-7.52,7.55l4.3,4.3c1.17,1.17,3.07,1.17,4.24,0.01l5.43-5.41C34.75,21.35,35,22.64,35,24z"/></svg>