<svg xmlns="http://www.w3.org/2000/svg"  viewBox="0 0 48 48" width="48px" height="48px" baseProfile="basic"><linearGradient id="SIOUlTcJ6VKMneZ4CcZnda" x1="26.282" x2="21.939" y1="56.339" y2="16.678" gradientUnits="userSpaceOnUse"><stop offset="0" stop-color="#262626" stop-opacity="0"/><stop offset="1" stop-color="#262626" stop-opacity=".8"/></linearGradient><path fill="url(#SIOUlTcJ6VKMneZ4CcZnda)" d="M44,38c0,2.75-2.25,5-5,5H4V33c0-2.761,2.239-5,5-5h35V38z"/><linearGradient id="SIOUlTcJ6VKMneZ4CcZndb" x1="23.58" x2="24.525" y1="30.376" y2="40.774" gradientUnits="userSpaceOnUse"><stop offset="0" stop-color="#262626" stop-opacity=".8"/><stop offset="1" stop-color="#262626" stop-opacity="0"/></linearGradient><path fill="url(#SIOUlTcJ6VKMneZ4CcZndb)" d="M27,37h-8v-2c0-1.105,0.895-2,2-2h8v2C29,36.105,28.105,37,27,37z"/><linearGradient id="SIOUlTcJ6VKMneZ4CcZndc" x1="24.108" x2="23.817" y1="34.532" y2="-3.318" gradientUnits="userSpaceOnUse"><stop offset="0" stop-color="#262626" stop-opacity="0"/><stop offset="1" stop-color="#262626" stop-opacity=".8"/></linearGradient><path fill="url(#SIOUlTcJ6VKMneZ4CcZndc)" d="M13,13h26v15H9V17C9,14.791,10.791,13,13,13z"/><linearGradient id="SIOUlTcJ6VKMneZ4CcZndd" x1="24.056" x2="23.903" y1="20.249" y2=".404" gradientUnits="userSpaceOnUse"><stop offset="0" stop-color="#262626" stop-opacity="0"/><stop offset="1" stop-color="#262626" stop-opacity=".8"/></linearGradient><path fill="url(#SIOUlTcJ6VKMneZ4CcZndd)" d="M13,9c-2.209,0-4,1.791-4,4v4c0-2.209,1.791-4,4-4h26V9H13z"/><linearGradient id="SIOUlTcJ6VKMneZ4CcZnde" x1="24.056" x2="23.903" y1="16.249" y2="-3.596" gradientUnits="userSpaceOnUse"><stop offset="0" stop-color="#262626" stop-opacity="0"/><stop offset="1" stop-color="#262626" stop-opacity=".8"/></linearGradient><path fill="url(#SIOUlTcJ6VKMneZ4CcZnde)" d="M13,5c-2.209,0-4,1.791-4,4v4c0-2.209,1.791-4,4-4h26V5H13z"/><linearGradient id="SIOUlTcJ6VKMneZ4CcZndf" x1="33.044" x2="32.95" y1="24.779" y2="12.441" gradientUnits="userSpaceOnUse"><stop offset="0" stop-color="#262626" stop-opacity="0"/><stop offset="1" stop-color="#262626" stop-opacity=".8"/></linearGradient><circle cx="33" cy="19" r="2" fill="url(#SIOUlTcJ6VKMneZ4CcZndf)"/><linearGradient id="SIOUlTcJ6VKMneZ4CcZndg" x1="22.423" x2="17.162" y1="40.15" y2="13.767" gradientUnits="userSpaceOnUse"><stop offset="0" stop-color="#262626" stop-opacity="0"/><stop offset="1" stop-color="#262626" stop-opacity=".8"/></linearGradient><polygon fill="url(#SIOUlTcJ6VKMneZ4CcZndg)" points="12,28 20,20 28,28"/><linearGradient id="SIOUlTcJ6VKMneZ4CcZndh" x1="32.601" x2="24.822" y1="22.591" y2="29.66" gradientUnits="userSpaceOnUse"><stop offset="0" stop-color="#262626" stop-opacity="0"/><stop offset=".937" stop-color="#262626" stop-opacity=".8"/></linearGradient><polygon fill="url(#SIOUlTcJ6VKMneZ4CcZndh)" points="24,24 27,21 34,28 28,28"/></svg>