<svg xmlns="http://www.w3.org/2000/svg"  viewBox="0 0 48 48" width="48px" height="48px" baseProfile="basic"><linearGradient id="f-Qu-SwAxLCTghiGkB3bta" x1="3.504" x2="71.36" y1="42.733" y2="-14.205" gradientUnits="userSpaceOnUse"><stop offset="0" stop-color="#262626" stop-opacity="0"/><stop offset="1" stop-color="#262626" stop-opacity=".8"/></linearGradient><path fill="url(#f-Qu-SwAxLCTghiGkB3bta)" d="M43,14v19c0,2.209-1.791,4-4,4H17V8c0-2.209,1.791-4,4-4h12L43,14z"/><linearGradient id="f-Qu-SwAxLCTghiGkB3btb" x1="40.669" x2="31.059" y1="6.331" y2="15.941" gradientUnits="userSpaceOnUse"><stop offset="0" stop-color="#262626" stop-opacity="0"/><stop offset=".913" stop-color="#262626" stop-opacity=".8"/></linearGradient><path fill="url(#f-Qu-SwAxLCTghiGkB3btb)" d="M33,4v7c0,1.657,1.343,3,3,3h7L33,4z"/><linearGradient id="f-Qu-SwAxLCTghiGkB3btc" x1="-13.796" x2="36.806" y1="54.18" y2="11.72" gradientUnits="userSpaceOnUse"><stop offset="0" stop-color="#262626" stop-opacity="0"/><stop offset="1" stop-color="#262626" stop-opacity=".8"/></linearGradient><path fill="url(#f-Qu-SwAxLCTghiGkB3btc)" d="M31,37v3c0,2.21-1.79,4-4,4H5V15c0-2.21,1.79-4,4-4h8v26H31z"/></svg>