<svg xmlns="http://www.w3.org/2000/svg"  viewBox="0 0 48 48" width="48px" height="48px" baseProfile="basic"><linearGradient id="RbwDOTC01_pvggX81hIW-a" x1="4.255" x2="12.53" y1="35.202" y2="4.317" gradientTransform="rotate(134.999 16 22)" gradientUnits="userSpaceOnUse"><stop offset="0" stop-color="#262626" stop-opacity="0"/><stop offset="1" stop-color="#262626" stop-opacity=".8"/></linearGradient><polygon fill="url(#RbwDOTC01_pvggX81hIW-a)" points="21,26 19,24 21,22 18.5,19.5 29,16 25.5,26.5 23,24"/><linearGradient id="RbwDOTC01_pvggX81hIW-b" x1="-488.119" x2="-418.274" y1="58.039" y2="11.092" gradientTransform="matrix(1.1176 0 0 .96 539.647 -17.4)" gradientUnits="userSpaceOnUse"><stop offset="0" stop-color="#262626" stop-opacity="0"/><stop offset="1" stop-color="#262626" stop-opacity=".8"/></linearGradient><path fill="url(#RbwDOTC01_pvggX81hIW-b)" d="M43,32V8H10c-2.761,0-5,2.239-5,5v19H43z"/><linearGradient id="RbwDOTC01_pvggX81hIW-c" x1="24" x2="24" y1="46.616" y2="20.002" gradientUnits="userSpaceOnUse"><stop offset="0" stop-color="#262626" stop-opacity="0"/><stop offset="1" stop-color="#262626" stop-opacity=".8"/></linearGradient><polygon fill="url(#RbwDOTC01_pvggX81hIW-c)" points="48,40 0,40 5,32 43,32"/><linearGradient id="RbwDOTC01_pvggX81hIW-d" x1="35.295" x2="3.378" y1="55.796" y2=".513" gradientUnits="userSpaceOnUse"><stop offset="0" stop-color="#262626" stop-opacity="0"/><stop offset="1" stop-color="#262626" stop-opacity=".8"/></linearGradient><polygon fill="url(#RbwDOTC01_pvggX81hIW-d)" points="8,37 10,32 38,32 40,37"/></svg>