<svg xmlns="http://www.w3.org/2000/svg" xmlns:xlink="http://www.w3.org/1999/xlink" viewBox="0,0,256,256" width="48px" height="48px"><defs><linearGradient x1="31.339" y1="15.694" x2="50.539" y2="26.779" gradientUnits="userSpaceOnUse" id="color-1"><stop offset="0" stop-color="#ffffff" stop-opacity="0"></stop><stop offset="1" stop-color="#262626" stop-opacity="0.8"></stop></linearGradient><linearGradient x1="34.5" y1="-30.47" x2="34.5" y2="32.907" gradientUnits="userSpaceOnUse" id="color-2"><stop offset="0" stop-color="#ffffff" stop-opacity="0"></stop><stop offset="1" stop-color="#262626" stop-opacity="0.8"></stop></linearGradient><linearGradient x1="33.975" y1="20.479" x2="42.003" y2="15.844" gradientUnits="userSpaceOnUse" id="color-3"><stop offset="0" stop-color="#ffffff" stop-opacity="0"></stop><stop offset="1" stop-color="#262626" stop-opacity="0.8"></stop></linearGradient><linearGradient x1="-8.193" y1="50.257" x2="39.802" y2="22.547" gradientUnits="userSpaceOnUse" id="color-4"><stop offset="0" stop-color="#ffffff" stop-opacity="0"></stop><stop offset="1" stop-color="#262626" stop-opacity="0.8"></stop></linearGradient><linearGradient x1="12.5" y1="-32.139" x2="12.5" y2="33.206" gradientUnits="userSpaceOnUse" id="color-5"><stop offset="0" stop-color="#ffffff" stop-opacity="0"></stop><stop offset="1" stop-color="#262626" stop-opacity="0.8"></stop></linearGradient><linearGradient x1="10.975" y1="20.479" x2="19.003" y2="15.844" gradientUnits="userSpaceOnUse" id="color-6"><stop offset="0" stop-color="#ffffff" stop-opacity="0"></stop><stop offset="1" stop-color="#262626" stop-opacity="0.8"></stop></linearGradient><linearGradient x1="7.913" y1="15.607" x2="28.237" y2="27.341" gradientUnits="userSpaceOnUse" id="color-7"><stop offset="0" stop-color="#ffffff" stop-opacity="0"></stop><stop offset="1" stop-color="#262626" stop-opacity="0.8"></stop></linearGradient><linearGradient x1="15.955" y1="45.841" x2="52.563" y2="24.706" gradientUnits="userSpaceOnUse" id="color-8"><stop offset="0" stop-color="#ffffff" stop-opacity="0"></stop><stop offset="1" stop-color="#262626" stop-opacity="0.8"></stop></linearGradient></defs><g fill="none" fill-rule="nonzero" stroke="none" stroke-width="1" stroke-linecap="butt" stroke-linejoin="miter" stroke-miterlimit="10" stroke-dasharray="" stroke-dashoffset="0" font-family="none" font-weight="none" font-size="none" text-anchor="none" style="mix-blend-mode: normal"><g transform="scale(5.33333,5.33333)"><path d="M44.07,23h-1.07l-1,5h-6c-1.07,0 -2.07,-0.28 -2.93,-0.77c1.19,-0.85 1.87,-2.35 1.59,-3.93l-1.66,-9.3h5c1.96,0 3.74,-0.81 5,-2.11v5.11l1.91,4.77c0.23,0.59 -0.2,1.23 -0.84,1.23z" fill="url(#color-1)"></path><path d="M33.071,7c-3.484,0 -6.437,2.562 -6.93,6.01l-2.141,14.99h6.722c2.491,0 4.376,-2.251 3.938,-4.703l-1.66,-9.297h5c3.866,0 7,-3.134 7,-7z" fill="url(#color-2)"></path><path d="M39,19v0c-1.105,0 -2,-0.895 -2,-2v0h4v0c0,1.105 -0.895,2 -2,2z" fill="url(#color-3)"></path><path d="M30,41v0h-27v-10h17c5.523,0 10,4.477 10,10z" fill="url(#color-4)"></path><path d="M11,7c-1.862,0 -3.413,1.278 -3.859,3h-0.141c-2.209,0 -4,2.047 -4,4.571v13.429c3.866,0 7,-3.582 7,-8v-6h5c3.866,0 7,-3.134 7,-7z" fill="url(#color-5)"></path><path d="M16,19v0c-1.105,0 -2,-0.895 -2,-2v0h4v0c0,1.105 -0.895,2 -2,2z" fill="url(#color-6)"></path><path d="M21.71,23h-1.71v5h-7c-2.05,0 -3.92,-0.77 -5.33,-2.04c1.43,-1.46 2.33,-3.59 2.33,-5.96v-6h5c1.87,0 3.56,-0.73 4.81,-1.93c0.07,-0.05 0.14,-0.11 0.19,-0.18v5.11l2.42,4.84c0.27,0.53 -0.12,1.16 -0.71,1.16z" fill="url(#color-7)"></path><path d="M20,31c5.523,0 10,4.477 10,10v0h16v0c0,-5.523 -4.477,-10 -10,-10z" fill="url(#color-8)"></path></g></g></svg>